<svg width="25" height="25" xmlns="http://www.w3.org/2000/svg" version="1.1" viewBox="-5.0 -10.0 110.0 110.0">
    <path fill="#a0aec0"
        d="m50 6.25c-6.8984 0-12.5 5.6016-12.5 12.5 0 2.7109 0.86719 5.2188 2.3359 7.2656-1.707 1.0273-3.6094 2.1094-5.2305 4.832-1.7266 2.9023-3.1484 7.8281-3.3359 17.07h-4.1875v-4.168c0-1.1484-0.93359-2.082-2.082-2.082h-16.668c-1.1484 0-2.082 0.93359-2.082 2.082v6.25c0 1.4141 0.070312 2.8242 0.20312 4.2305 0.089844 0.91016 0.76172 1.6562 1.6562 1.8398l5.0703 1.043c0.33594 1.7422 0.79687 3.4609 1.3789 5.1406l-3.8672 3.4336c-0.68359 0.60938-0.89453 1.5898-0.51562 2.4219 1.1719 2.5742 2.5859 5.0312 4.2305 7.332 0.53125 0.74219 1.4844 1.0508 2.3516 0.76172l4.9102-1.6328c1.1641 1.3398 2.4219 2.6016 3.7656 3.7656l-1.6328 4.9102c-0.28906 0.86719 0.015625 1.8203 0.76172 2.3516 2.3008 1.6445 4.7617 3.0586 7.332 4.2305 0.83203 0.37891 1.8125 0.16797 2.4219-0.51562l3.4336-3.8672c1.6758 0.58203 3.3984 1.043 5.1406 1.3789l1.043 5.0703c0.18359 0.89453 0.92969 1.5664 1.8398 1.6562 2.8164 0.27344 5.6484 0.27344 8.4609 0 0.91016-0.089843 1.6562-0.76172 1.8398-1.6562l1.043-5.0703c1.7422-0.33594 3.4609-0.79688 5.1406-1.3789l3.4336 3.8672c0.60938 0.68359 1.5898 0.89453 2.4219 0.51562 2.5742-1.1719 5.0312-2.5859 7.332-4.2305 0.74219-0.53125 1.0508-1.4844 0.76172-2.3516l-1.6328-4.9102c1.3398-1.1641 2.6016-2.4219 3.7656-3.7656l4.9102 1.6328c0.86719 0.28906 1.8203-0.015625 2.3516-0.76172 1.6445-2.3008 3.0586-4.7617 4.2305-7.332 0.37891-0.83203 0.16797-1.8125-0.51562-2.4219l-3.8672-3.4336c0.58203-1.6758 1.043-3.3984 1.3789-5.1406l5.0703-1.043c0.89453-0.18359 1.5664-0.92969 1.6562-1.8398 0.13672-1.4062 0.20312-2.8203 0.20312-4.2305v-6.25c0-1.1484-0.93359-2.082-2.082-2.082h-16.668c-1.1484 0-2.082 0.93359-2.082 2.082v4.168h-4.1875c-0.18359-9.2383-1.6055-14.168-3.332-17.07-1.6211-2.7227-3.5273-3.8008-5.2344-4.832 1.4648-2.0469 2.3359-4.5547 2.3359-7.2656 0-6.8984-5.6016-12.5-12.5-12.5zm0 4.168c4.6016 0 8.332 3.7344 8.332 8.332 0 4.6016-3.7344 8.332-8.332 8.332-4.6016 0-8.332-3.7344-8.332-8.332 0-4.6016 3.7344-8.332 8.332-8.332zm-7.1172 18.605c0.72656 0.50391 1.5117 0.93359 2.3398 1.2773l-3.4062 8.5117c-0.36719 0.91406-0.042968 1.9609 0.77734 2.5078l6.25 4.168c0.69922 0.46484 1.6133 0.46484 2.3125 0l6.25-4.168c0.82031-0.54687 1.1445-1.5898 0.77734-2.5078l-3.4062-8.5117c0.82812-0.34375 1.6133-0.77344 2.3398-1.2773 1.1836 0.73047 2.5781 1.3125 3.8242 2.7422 1.9609 2.25 3.4414 6.5039 3.625 16.152h-29.129c0.17969-9.6484 1.6602-13.902 3.6211-16.152 1.2461-1.4297 2.6406-2.0117 3.8242-2.7422zm6.4492 2.2109c0.22266 0.011719 0.44531 0.015625 0.66797 0.015625s0.44531-0.003906 0.66797-0.015625l3.0195 7.5508-3.6875 2.4609-3.6875-2.4609zm-38.918 14.602h12.5v4.168c0 14.949 12.137 27.082 27.082 27.082 14.949 0 27.082-12.137 27.082-27.082v-4.168h12.5v4.168c0 0.76953-0.019531 1.5352-0.066406 2.3008l-4.9258 1.0156c-0.85547 0.17578-1.5117 0.86328-1.6406 1.7266-0.37109 2.418-1.0078 4.7891-1.8945 7.0703-0.31641 0.8125-0.089843 1.7344 0.5625 2.3164l3.7578 3.3359c-0.69141 1.375-1.4609 2.707-2.3047 3.9922-0.003906 0-4.7734-1.5859-4.7734-1.5859-0.82812-0.27344-1.7383-0.007812-2.2852 0.67578-1.5273 1.9102-3.2617 3.6406-5.1719 5.1719-0.67969 0.54687-0.94922 1.457-0.67578 2.2852l1.5859 4.7734c-1.2852 0.84766-2.6172 1.6133-3.9922 2.3047l-3.3359-3.7578c-0.57812-0.65234-1.5039-0.87891-2.3164-0.5625-2.2773 0.89062-4.6484 1.5234-7.0664 1.8945-0.85938 0.13281-1.5508 0.78906-1.7266 1.6406l-1.0156 4.9258c-1.5352 0.089844-3.0703 0.089844-4.6055 0l-1.0156-4.9258c-0.17578-0.85547-0.86328-1.5117-1.7266-1.6406-2.418-0.37109-4.7891-1.0078-7.0703-1.8945-0.8125-0.31641-1.7344-0.089844-2.3164 0.5625l-3.3359 3.7578c-1.375-0.69141-2.707-1.4609-3.9922-2.3047 0-0.003906 1.5859-4.7734 1.5859-4.7734 0.27344-0.82812 0.007813-1.7383-0.67578-2.2852-1.9102-1.5273-3.6406-3.2617-5.1719-5.1719-0.54688-0.67969-1.457-0.94922-2.2852-0.67578l-4.7734 1.5859c-0.84766-1.2852-1.6133-2.6172-2.3047-3.9922l3.7578-3.3359c0.65234-0.57812 0.87891-1.5039 0.5625-2.3164-0.89062-2.2773-1.5234-4.6484-1.8945-7.0703-0.13281-0.85938-0.78906-1.5508-1.6406-1.7266l-4.9258-1.0156c-0.042969-0.76563-0.066406-1.5352-0.066406-2.3008v-4.168zm16.762 6.25h45.645c-1.0547 11.672-10.879 20.832-22.824 20.832-11.945 0-21.77-9.1602-22.824-20.832z"
        fill-rule="evenodd" />
</svg>