<svg width="25" height="25" xmlns:inkscape="http://www.inkscape.org/namespaces/inkscape"
    xmlns:sodipodi="http://sodipodi.sourceforge.net/DTD/sodipodi-0.dtd" xmlns="http://www.w3.org/2000/svg"
    xmlns:svg="http://www.w3.org/2000/svg" xmlns:rdf="http://www.w3.org/1999/02/22-rdf-syntax-ns#"
    xmlns:cc="http://creativecommons.org/ns#" xmlns:dc="http://purl.org/dc/elements/1.1/"
    viewBox="0 0 16.933333 16.933333" version="1.1" x="0px" y="0px">
    <g>
        <path style="color:#000000;paint-order:fill markers stroke;"
            d="m 7.5711156,0.97048317 c -3.7396711,2e-6 -6.7773655,3.03768503 -6.7773655,6.77736403 0,3.7396808 3.0376944,6.7758118 6.7773655,6.7758148 0.6056418,0 1.2076641,-0.08242 1.7911048,-0.242364 0.6578416,1.011317 1.7981346,1.681552 3.0918016,1.681552 2.03209,0 3.685561,-1.653464 3.685561,-3.685564 0,-1.391409 -0.775523,-2.6052328 -1.916678,-3.2323588 0.08346,-0.427307 0.125573,-0.861126 0.125573,-1.29708 0,-3.739682 -3.037694,-6.77736703 -6.7773624,-6.77736403 z m 0,0.52968403 c 3.4536804,-3e-6 6.2481964,2.793978 6.2481964,6.24768 0,0.359315 -0.03264,0.716994 -0.09457,1.070218 -0.396401,-0.146116 -0.824243,-0.22634 -1.270722,-0.22634 -0.554749,0 -1.081535,0.12365 -1.553911,0.344164 -0.557435,-0.502965 -1.2314052,-0.881099 -1.9771413,-1.090374 0.8665792,-0.478832 1.4546923,-1.402974 1.4546923,-2.460831 0,-1.547612 -1.2589482,-2.806547 -2.8065464,-2.806547 -1.5476114,0 -2.8086156,1.258935 -2.8086156,2.806547 0,1.057857 0.5890842,1.981999 1.4562429,2.460831 C 4.4291707,8.3478722 3.0524801,9.8231932 2.7026771,11.665955 1.8395031,10.594986 1.3229148,9.2325272 1.3229148,7.7478472 c 0,-3.453696 2.7945079,-6.247678 6.2481988,-6.24768 z m 0,1.607137 c 1.2616206,0 2.2773798,1.015751 2.2773798,2.27738 0,1.224997 -0.9578498,2.220116 -2.1683424,2.276864 -0.036261,-7.76e-4 -0.072591,-0.0016 -0.1090374,-0.0016 -0.036187,0 -0.07252,7.86e-4 -0.1085215,0.0016 -1.2110561,-0.05627 -2.1709274,-1.051544 -2.1709274,-2.276864 0,-1.261629 1.0178177,-2.27738 2.2794489,-2.27738 z m -0.1126543,5.08341 c 0.037396,0.0015 0.074901,0.0026 0.1126543,0.0026 0.038272,0 0.076298,-0.0011 0.1142047,-0.0026 1.0402703,0.02592 1.9863276,0.404374 2.7264497,1.020093 -0.9900686,0.661496 -1.6433116,1.7890808 -1.6433116,3.0664788 0,0.544041 0.1186814,1.060706 0.3312451,1.526005 -0.499544,0.126201 -1.0122641,0.190686 -1.5285879,0.190686 -1.7206727,0 -3.2776345,-0.693214 -4.4069661,-1.81591 0.205232,-2.2084318 2.0303066,-3.9319088 4.2943118,-3.9873528 z m 4.9955607,0.930177 c 0.476422,0 0.927637,0.105381 1.332217,0.293521 a 0.26458349,0.26458349 0 0 0 5.18e-4,5.16e-4 0.26458349,0.26458349 0 0 0 0.0026,10e-4 c 1.076529,0.502057 1.820561,1.5928648 1.820561,2.8613228 0,1.74612 -1.409769,3.156397 -3.155879,3.156397 -1.173168,0 -2.194798,-0.636553 -2.7388527,-1.583883 a 0.26458349,0.26458349 0 0 0 -0.019635,-0.03565 C 9.4422383,13.359596 9.297625,12.835684 9.297625,12.277286 c 0,-1.746118 1.410287,-3.1563948 3.156397,-3.1563948 z m -0.02946,0.662491 c -0.616601,0.01579 -1.115179,0.5259218 -1.115179,1.1461828 v 0.828373 H 11.13937 a 0.26460995,0.26460995 0 0 0 -0.265618,0.263551 v 2.021581 a 0.26460995,0.26460995 0 0 0 0.265618,0.263549 h 2.630847 A 0.26460995,0.26460995 0 0 0 14.03377,14.04307 v -2.021581 a 0.26460995,0.26460995 0 0 0 -0.263549,-0.263551 h -0.170016 v -0.828373 c 0,-0.630103 -0.516083,-1.1461828 -1.146183,-1.1461828 -0.0098,0 -0.01967,-2.52e-4 -0.02946,0 z m 0.02946,0.5291658 c 0.346099,0 0.617016,0.270915 0.617016,0.617017 v 0.828373 h -1.232484 v -0.828373 c 0,-0.346099 0.269367,-0.617017 0.615468,-0.617017 z m -1.051099,1.974557 h 0.170015 1.761649 0.170016 v 1.490347 h -2.10168 z"
            fill="#000000" fill-rule="evenodd" stroke-width="1" stroke-linecap="round" stroke-linejoin="round" />
    </g>
</svg>