<svg width="25" height="25" xmlns="http://www.w3.org/2000/svg" xmlns:xlink="http://www.w3.org/1999/xlink" xmlns:serif="http://www.serif.com/" viewBox="0 0 48 48" version="1.1" xml:space="preserve" style="" x="0px" y="0px" fill-rule="evenodd" clip-rule="evenodd" stroke-linejoin="round" stroke-miterlimit="2"><g transform="matrix(1,0,0,1,-288,-504)"><g><path d="M308,547.5L308,535.5C308,535.367 308.053,535.24 308.146,535.146C308.24,535.053 308.367,535 308.5,535L315.5,535C315.633,535 315.76,535.053 315.854,535.146C315.947,535.24 316,535.367 316,535.5L316,547.5C316,548.163 316.263,548.799 316.732,549.268C317.201,549.737 317.837,550 318.5,550C320.388,550 323.612,550 325.5,550C326.163,550 326.799,549.737 327.268,549.268C327.737,548.799 328,548.163 328,547.5C328,543.634 328,533.366 328,529.5C328,529.367 328.053,529.24 328.146,529.146C328.24,529.053 328.367,529 328.5,529L331.292,529C332.423,529 333.445,528.274 333.837,527.158C334.219,526.07 333.91,524.85 333.073,524.095L313.781,506.69C312.756,505.766 311.244,505.766 310.219,506.69C306.814,509.762 296.428,519.132 290.927,524.095C290.09,524.85 289.781,526.07 290.163,527.158C290.555,528.274 291.577,529 292.708,529L295.5,529C295.633,529 295.76,529.053 295.854,529.146C295.947,529.24 296,529.367 296,529.5L296,547.5C296,548.163 296.263,548.799 296.732,549.268C297.201,549.737 297.837,550 298.5,550C300.388,550 303.612,550 305.5,550C306.163,550 306.799,549.737 307.268,549.268C307.737,548.799 308,548.163 308,547.5L308,547.5Z"/></g></g></svg>