<svg width="25" height="25" xmlns:dc="http://purl.org/dc/elements/1.1/" xmlns:cc="http://creativecommons.org/ns#"
    xmlns:rdf="http://www.w3.org/1999/02/22-rdf-syntax-ns#" xmlns:svg="http://www.w3.org/2000/svg"
    xmlns="http://www.w3.org/2000/svg"
    xmlns:sodipodi="http://sodipodi.sourceforge.net/DTD/sodipodi-0.dtd"
    xmlns:inkscape="http://www.inkscape.org/namespaces/inkscape" version="1.1" x="0px" y="0px"
    viewBox="0 0 100 100">
    <g transform="translate(0,-952.36218)">
        <path style="color:#ffffff;enable-background:accumulate;"
            d="m 6.0000001,958.36217 0,24.00002 23.9999999,0 0,-24.00002 -23.9999999,0 z m 31.9999999,0 0,24.00002 24,0 0,-24.00002 -24,0 z m 32,0 0,24.00002 24,0 0,-24.00002 -24,0 z m -63.9999999,32.00002 0,24.00001 23.9999999,0 0,-24.00001 -23.9999999,0 z m 31.9999999,0 0,24.00001 24,0 0,-24.00001 -24,0 z m 32,0 0,24.00001 24,0 0,-24.00001 -24,0 z m -63.9999999,32.00001 0,24 23.9999999,0 0,-24 -23.9999999,0 z m 31.9999999,0 0,24 24,0 0,-24 -24,0 z m 32,0 0,24 24,0 0,-24 -24,0 z"
            fill="#ffffff" stroke="none" marker="none" visibility="visible" display="inline"
            overflow="visible" />
    </g>
</svg>