<svg width="25" height="25" xmlns="http://www.w3.org/2000/svg" xmlns:xlink="http://www.w3.org/1999/xlink" version="1.1" x="0px" y="0px" viewBox="0 0 32 32" enable-background="new 0 0 32 32" xml:space="preserve"><g><path d="M26.4472141,2.2763932L29,7h-6l2.5527859-4.7236071C25.7370491,1.9078689,26.2629509,1.9078689,26.4472141,2.2763932z"/><path d="M29,19.3822021V8h-2.5v10.0505371C27.4955444,18.1766357,28.3709717,18.6621704,29,19.3822021z"/><path d="M25.5,18.0505371V8H23v11.3822021C23.6290283,18.6621704,24.5044556,18.1766357,25.5,18.0505371z"/><circle cx="26" cy="22" r="3"/><path d="M27,25h-1h-1c-1.6542969,0-3,1.3457031-3,3v1c0,0.5522461,0.4472656,1,1,1h6c0.5527344,0,1-0.4477539,1-1v-1   C30,26.3457031,28.6542969,25,27,25z"/><circle cx="16" cy="22" r="3"/><path d="M17,25h-1h-1c-1.6542969,0-3,1.3457031-3,3v1c0,0.5522461,0.4477539,1,1,1h6c0.5527344,0,1-0.4477539,1-1v-1   C20,26.3457031,18.6542969,25,17,25z"/><circle cx="6" cy="22" r="3"/><path d="M7,25H6H5c-1.6542969,0-3,1.3457031-3,3v1c0,0.5522461,0.4477539,1,1,1h6c0.5522461,0,1-0.4477539,1-1v-1   C10,26.3457031,8.6542969,25,7,25z"/><path d="M9.9482422,10.9746094c-0.1186523-0.3554688-0.4267578-0.6142578-0.796875-0.6708984L7.605957,10.0673828   L6.9052734,8.5751953C6.7402344,8.2241211,6.3876953,8,6,8S5.2597656,8.2241211,5.0947266,8.5751953L4.394043,10.0673828   l-1.5454102,0.2363281c-0.3701172,0.0566406-0.6782227,0.3154297-0.796875,0.6708984   c-0.1191406,0.3554688-0.0292969,0.7475586,0.2324219,1.015625l1.1474609,1.1762695l-0.2724609,1.6723633   c-0.0620117,0.3779297,0.0976563,0.7583008,0.4111328,0.9785156S4.2939453,16.0600586,4.6298828,15.875L6,15.1176758   L7.3701172,15.875C7.5214844,15.9584961,7.6879883,16,7.8540039,16c0.0053711-0.0004883,0.012207,0,0.0200195,0   c0.5522461,0,1-0.4477539,1-1c0-0.1245117-0.0229492-0.2441406-0.0644531-0.3544922l-0.2412109-1.4790039l1.1474609-1.1762695   C9.9775391,11.722168,10.0673828,11.3300781,9.9482422,10.9746094z"/><path d="M18,16c-0.2558594,0-0.5117188-0.0976563-0.7070313-0.2929688c-0.390625-0.390625-0.390625-1.0234375,0-1.4140625   L18.5859375,13l-1.2929688-1.2929688c-0.390625-0.390625-0.390625-1.0234375,0-1.4140625s1.0234375-0.390625,1.4140625,0l2,2   c0.390625,0.390625,0.390625,1.0234375,0,1.4140625l-2,2C18.5117188,15.9023438,18.2558594,16,18,16z"/><path d="M14,16c-0.2558594,0-0.5117188-0.0976563-0.7070313-0.2929688l-2-2c-0.390625-0.390625-0.390625-1.0234375,0-1.4140625l2-2   c0.390625-0.390625,1.0234375-0.390625,1.4140625,0s0.390625,1.0234375,0,1.4140625L13.4140625,13l1.2929688,1.2929688   c0.390625,0.390625,0.390625,1.0234375,0,1.4140625C14.5117188,15.9023438,14.2558594,16,14,16z"/></g></svg>
